<svg width="155" height="197" viewBox="0 0 155 197" fill="none" xmlns="http://www.w3.org/2000/svg">
<path d="M122.813 22.6954V0H32.1566V32.9542C18.2355 36.3669 7.82739 49.5169 7.82739 65.5826C7.82739 80.9425 18.0049 93.1615 32.1566 96.4762V115.441H122.813V38.1367C126.849 37.8895 129.599 34.9631 129.599 31.1271C129.6 27.3184 127.053 24.1774 122.813 22.6954ZM32.1575 92.073C21.35 89.6625 11.5308 80.2013 11.5308 65.5826C11.5308 51.5502 20.2452 39.8689 32.1357 36.4725C32.1464 36.4725 32.1464 36.4725 32.1575 36.4674V92.073ZM35.4824 35.745C36.7228 35.5632 37.9909 35.4708 39.2804 35.4708C44.4248 35.4708 49.1402 37.3005 52.8569 40.3954C52.0746 42.8632 51.6567 45.4721 51.6567 48.1868C51.6567 55.8503 54.8196 62.6644 59.7548 66.9427C59.7548 67.2198 59.5457 67.6052 59.4563 67.8656C59.3476 68.1808 59.2309 68.4956 59.1115 68.8078C58.875 69.4242 58.6146 70.0294 58.3323 70.6269C57.7784 71.7941 57.1403 72.9206 56.4183 73.9903C55.0202 76.0642 53.3047 77.9238 51.3283 79.455C49.3792 80.9618 47.18 82.1427 44.8401 82.9134C41.7996 83.9155 38.6478 83.9886 35.4824 84.0536V35.745ZM74.0776 62.572C72.8617 64.5159 71.6671 66.5299 70.4507 68.5555C68.0128 68.3844 65.7379 67.5483 63.7346 66.1908C64.3727 63.666 64.7118 60.9946 64.7118 58.2231C64.7118 50.7683 61.7881 44.1689 57.0834 39.4668C61.1992 29.6421 72.058 23.423 83.1153 23.423C89.84 23.423 95.4237 25.1115 99.4094 28.2333C91.2591 34.8738 83.8454 46.5008 74.0776 62.572ZM104.079 33.831C105.463 36.4969 106.204 39.6272 106.204 43.1673C106.204 51.6344 99.7323 60.4001 88.447 62.013C95.7004 49.1397 99.9466 39.8363 104.079 33.831ZM61.0281 58.2231C61.0281 60.0041 60.8814 61.7252 60.5935 63.3893C57.3443 59.6701 55.3405 54.2648 55.3405 48.1868C55.3405 46.5307 55.5116 44.9345 55.8401 43.4059C59.076 47.3669 61.0281 52.5275 61.0281 58.2231ZM35.4824 86.9992C38.3656 86.9992 41.2076 87.0398 44.039 86.4047C46.485 85.8589 48.8391 84.9304 51.0054 83.6683C53.1635 82.4113 55.1262 80.8313 56.8366 79.0123C58.5846 77.1446 60.067 75.0326 61.2479 72.7632C61.8561 71.593 62.3852 70.3852 62.8334 69.1444C64.6631 70.203 66.6557 70.9553 68.7622 71.3326C68.6103 71.3326 67.5107 73.3333 67.3696 73.5476C66.8863 74.2969 66.3948 75.0407 65.8927 75.7764C64.8966 77.2399 63.8513 78.6706 62.7384 80.0495C60.5422 82.7671 58.0637 85.2781 55.2105 87.3114C52.2324 89.4315 48.8716 90.9708 45.3152 91.8206C42.1362 92.5807 38.7428 92.8822 35.4824 92.5944V86.9992ZM119.483 112.097H35.4824V97.0873C56.3208 98.7404 70.9366 91.0901 86.1422 65.9927C86.3184 65.6968 88.8131 67.662 89.0304 67.8819C89.8503 68.6966 90.4966 69.6628 91.0205 70.6893C92.1877 72.9856 92.7634 75.5484 93.2954 78.0513C93.8621 80.7715 94.3429 83.516 95.1628 86.1767C95.939 88.707 97.0519 91.1962 98.8769 93.1534C100.935 95.3607 103.731 96.5903 106.673 97.0873C111.31 97.8636 115.655 96.767 119.483 94.0874V112.097ZM119.483 86.725C119.483 90.8733 115.909 93.0203 112.225 93.0203C108.213 93.0203 103.86 89.6762 102.52 78.6351C101.184 68.2595 95.4917 64.9149 89.4701 64.9149V64.2443C100.183 64.2443 115.569 54.876 115.569 43.1673C115.569 37.295 113.18 32.2242 108.978 28.3364C111.473 26.3848 114.285 25.4319 117.913 25.4319C118.325 25.4319 119.081 25.4451 119.483 25.4887V86.725ZM119.484 21.8674C118.825 21.7887 117.676 21.7477 116.911 21.7477C112.25 21.7477 108.134 22.8229 104.293 24.9186C98.915 21.8238 91.8806 20.0783 83.783 20.0783C70.304 20.0783 59.0542 26.9711 54.214 36.9994C50.0225 33.9153 44.8619 32.1207 39.2804 32.1207C37.996 32.1207 36.7557 32.1968 35.5068 32.3597H35.4824V3.34461H119.484V21.8674ZM122.813 35.783V26.4228C125.071 27.4433 126.589 29.2025 126.589 31.4611C126.589 33.9397 125.156 35.5632 122.813 35.783Z" fill="#FFF7E9"/>
<path d="M1.02862 153.603V135.561C1.02862 134.717 1.02862 134.717 0 132.757H10.3589C15.9994 132.757 19.1216 135.629 19.1216 139.278C19.1216 142.285 17.0994 144.548 13.4807 145.359L19.5826 152.995C21.1082 154.921 21.1082 154.921 22.6339 156.408H16.0349L7.87566 145.698H6.20806V153.469C6.20806 154.347 6.20806 154.347 7.62716 156.408H0C1.02862 154.414 1.02862 154.414 1.02862 153.603ZM9.08177 143.332C12.2745 143.332 13.7646 141.744 13.7646 139.379C13.7646 136.981 12.2745 135.427 9.08177 135.427H6.20806V143.332H9.08177Z" fill="#FFF7E9"/>
<path d="M24.7276 147.387V135.561C24.7276 134.717 24.7276 134.717 23.699 132.757H31.1131C29.907 134.75 29.907 134.75 29.907 135.595V147.69C29.907 151.272 32.1777 153.603 35.938 153.603C39.5568 153.603 41.7209 151.238 41.7209 147.69V135.595C41.7209 134.75 41.7209 134.75 40.4438 132.757H46.2618C45.2683 134.75 45.2683 134.75 45.2683 135.595V147.285C45.2683 153.502 41.5434 156.914 35.0865 156.914C28.5593 156.914 24.7276 153.637 24.7276 147.387Z" fill="#FFF7E9"/>
<path d="M51.3708 153.604V133.805L50.3773 132.758H56.5148L69.1088 147.861V135.596C69.1088 134.751 69.1088 134.751 67.7966 132.758H73.5432C72.5501 134.751 72.5501 134.751 72.5501 135.562V156.645H70.0673L54.8121 138.873V153.57C54.8121 154.415 54.8121 154.415 56.2312 156.408H50.3418C51.3708 154.415 51.3708 154.415 51.3708 153.604Z" fill="#FFF7E9"/>
<path d="M76.2402 132.758H84.1163C82.8033 134.785 82.8033 134.785 83.2643 136.204L87.5572 149.279L93.8717 132.69H96.8169L103.096 149.245L107.389 136.204C107.886 134.752 107.886 134.752 106.644 132.758H112.604C111.504 134.717 111.504 134.717 110.759 136.778L103.593 156.644H101.074L94.4393 139.751L87.6992 156.61L85.1449 156.644L77.8719 136.373C77.2334 134.548 77.2334 134.548 76.2402 132.758Z" fill="#FFF7E9"/>
<path d="M112.924 152.455L121.581 132.656H125.093L133.82 152.658C134.672 154.584 134.672 154.584 135.7 156.408H127.718C128.853 154.314 128.853 154.314 128.321 152.962L127.186 150.157H117.501L116.294 153.097C115.763 154.448 115.763 154.448 116.933 156.408H110.937C112.037 154.414 112.037 154.414 112.924 152.455ZM126.087 147.319L122.397 138.096L118.637 147.319H126.087Z" fill="#FFF7E9"/>
<path d="M138.291 156.408C139.319 154.414 139.319 154.414 139.319 153.603V135.561C139.319 134.717 139.319 134.717 138.291 132.757H145.528C144.499 134.75 144.499 134.75 144.499 135.561V153.401H149.076C150.636 153.401 151.594 153.401 155 150.799L154.433 156.407H138.291V156.408Z" fill="#FFF7E9"/>
<path d="M27.7209 176.439V166.162C27.7209 165.681 27.7209 165.681 27.1624 164.564H32.7823C35.8425 164.564 37.5362 166.2 37.5362 168.279C37.5362 169.992 36.4392 171.282 34.476 171.743L37.7864 176.093C38.6136 177.19 38.6136 177.19 39.4412 178.037H35.8618L31.4351 171.936H30.5305V176.363C30.5305 176.863 30.5305 176.863 31.3003 178.037H27.1624C27.7209 176.901 27.7209 176.901 27.7209 176.439ZM32.0894 170.588C33.8216 170.588 34.63 169.684 34.63 168.336C34.63 166.97 33.8216 166.084 32.0894 166.084H30.5305V170.588H32.0894V170.588Z" fill="#FFF7E9"/>
<path d="M46.4858 178.036C47.044 176.901 47.044 176.901 47.044 176.439V166.162C47.044 165.681 47.044 165.681 46.4858 164.564H55.743V167.355C54.3961 166.2 53.9723 166.2 53.2794 166.2H49.854V170.184H52.6443C53.2602 170.184 53.5685 170.184 54.6656 169.433V172.571C53.5685 171.82 53.2409 171.82 52.625 171.82H49.854V176.4H52.9137C53.7221 176.4 54.1844 176.4 55.9354 175.073L55.6279 178.037H46.4858V178.036Z" fill="#FFF7E9"/>
<path d="M63.769 175.784L68.4651 164.506H70.3701L75.1047 175.9C75.5666 176.997 75.5666 176.997 76.1248 178.036H71.7943C72.4102 176.843 72.4102 176.843 72.1215 176.073L71.5056 174.476H66.2518L65.5974 176.15C65.3087 176.92 65.3087 176.92 65.9438 178.036H62.6912C63.2878 176.901 63.2878 176.901 63.769 175.784ZM70.9086 172.859L68.9069 167.605L66.8672 172.859H70.9086Z" fill="#FFF7E9"/>
<path d="M83.3035 178.036C83.8625 176.901 83.8625 176.901 83.8625 176.439V166.162C83.8625 165.681 83.8625 165.681 83.3035 164.564H87.2302C86.6716 165.7 86.6716 165.7 86.6716 166.162V176.324H89.1548C90.0012 176.324 90.5209 176.324 92.3686 174.842L92.061 178.037H83.3035V178.036Z" fill="#FFF7E9"/>
<path d="M97.3918 164.564H108.708V167.663C107.399 166.258 106.976 166.258 106.264 166.258H104.455V176.44C104.455 176.92 104.455 176.92 105.129 178.037H100.837C101.645 176.843 101.645 176.843 101.645 176.362V166.258H99.8178C99.1056 166.258 98.6822 166.258 97.3923 167.663V164.564H97.3918Z" fill="#FFF7E9"/>
<path d="M120.179 176.362V172.359L116.753 166.586C116.099 165.508 116.099 165.508 115.368 164.564H119.776C119.756 165.643 119.583 165.758 119.583 165.912C119.583 166.008 119.64 166.104 119.91 166.566L122.104 170.319L124.357 166.585C124.626 166.143 124.703 166.008 124.703 165.931C124.703 165.758 124.51 165.604 124.452 164.564H127.821C127.07 165.585 127.07 165.585 126.512 166.489L123.009 172.205V176.439C123.009 176.92 123.009 176.92 123.683 178.036H119.352C120.179 176.843 120.179 176.843 120.179 176.362Z" fill="#FFF7E9"/>
<path d="M35.689 196.199C35.3199 196.071 35.0009 195.891 34.7314 195.66L34.5967 193.899C34.9688 194.425 35.3683 194.823 35.7951 195.092C36.2215 195.362 36.6595 195.496 37.1086 195.496C37.4165 195.496 37.6599 195.418 37.8399 195.26C38.0191 195.103 38.1094 194.893 38.1094 194.63C38.1094 194.418 38.0435 194.237 37.9118 194.087C37.7805 193.935 37.57 193.799 37.2818 193.677L36.0308 193.157C35.1899 192.798 34.7699 192.204 34.7699 191.378C34.7699 190.986 34.8708 190.638 35.0731 190.333C35.275 190.029 35.5543 189.791 35.9106 189.621C36.2664 189.451 36.6689 189.366 37.118 189.366C37.875 189.366 38.5324 189.578 39.0909 190.001V191.531C38.8022 191.108 38.4716 190.785 38.0995 190.564C37.7274 190.342 37.3489 190.232 36.964 190.232C36.6625 190.232 36.4298 190.302 36.2664 190.444C36.1026 190.585 36.0209 190.768 36.0209 190.992C36.0209 191.371 36.2519 191.653 36.7138 191.839L38.061 192.387C38.478 192.547 38.8005 192.783 39.0285 193.094C39.256 193.406 39.3698 193.786 39.3698 194.235C39.3698 194.658 39.2672 195.033 39.0619 195.36C38.8566 195.688 38.5679 195.941 38.1958 196.12C37.8237 196.3 37.4002 196.39 36.9255 196.39C36.47 196.392 36.0577 196.327 35.689 196.199Z" fill="#FFF7E9"/>
<path d="M44.4943 195.723C44.5169 195.656 44.5281 195.564 44.5281 195.449V190.31C44.5281 190.188 44.5169 190.093 44.4943 190.026C44.4716 189.959 44.3899 189.787 44.2488 189.511H46.2025C46.0678 189.794 45.9891 189.968 45.9668 190.036C45.9442 190.103 45.9331 190.195 45.9331 190.31V195.449C45.9331 195.571 45.9442 195.664 45.9668 195.728C45.9891 195.792 46.0678 195.966 46.2025 196.248H44.2488C44.3895 195.965 44.4716 195.791 44.4943 195.723Z" fill="#FFF7E9"/>
<path d="M51.5573 195.723C51.5795 195.656 51.5911 195.564 51.5911 195.449V189.809L51.3216 189.511H52.9862L56.4027 193.813V190.32C56.4027 190.23 56.3975 190.163 56.3881 190.118C56.3783 190.073 56.3449 190.001 56.2872 189.901C56.2295 189.802 56.149 189.672 56.0464 189.511H57.6054C57.4706 189.794 57.3919 189.968 57.3697 190.036C57.347 190.103 57.3359 190.195 57.3359 190.31V196.315H56.6623L52.5243 191.253V195.44C52.5243 195.529 52.5307 195.597 52.5435 195.641C52.5564 195.686 52.5932 195.759 52.6543 195.858C52.715 195.958 52.8002 196.088 52.9092 196.248H51.3118C51.4529 195.965 51.5346 195.791 51.5573 195.723Z" fill="#FFF7E9"/>
<path d="M64.0009 195.954C63.4971 195.662 63.1074 195.259 62.8316 194.746C62.5557 194.233 62.418 193.649 62.418 192.994C62.418 192.27 62.5655 191.633 62.8602 191.084C63.1553 190.536 63.5728 190.113 64.1117 189.814C64.6506 189.516 65.2759 189.366 65.988 189.366C66.9246 189.366 67.6718 189.585 68.23 190.021V191.676C67.9417 191.201 67.6111 190.851 67.239 190.627C66.8669 190.403 66.4435 190.29 65.9687 190.29C65.3208 190.29 64.8058 190.492 64.4243 190.897C64.0424 191.3 63.8516 191.859 63.8516 192.571C63.8516 193.103 63.9543 193.565 64.1596 193.956C64.3649 194.348 64.6536 194.648 65.0257 194.857C65.3978 195.064 65.8246 195.169 66.3058 195.169C66.7613 195.169 67.165 195.085 67.5183 194.918C67.8707 194.751 68.1436 194.514 68.336 194.206C68.2719 194.918 68.02 195.461 67.5807 195.833C67.1411 196.205 66.5269 196.391 65.7378 196.391C65.0834 196.392 64.5043 196.245 64.0009 195.954Z" fill="#FFF7E9"/>
<path d="M73.186 196.247C73.3267 195.964 73.4089 195.79 73.4311 195.722C73.4538 195.655 73.4649 195.563 73.4649 195.448V190.309C73.4649 190.187 73.4538 190.092 73.4311 190.025C73.4089 189.957 73.3267 189.786 73.186 189.51H77.815V190.906C77.6033 190.719 77.4267 190.587 77.2855 190.506C77.1444 190.426 77.0272 190.376 76.9344 190.357C76.8412 190.337 76.7235 190.328 76.5828 190.328H74.8703V192.32H76.265C76.4447 192.32 76.5957 192.301 76.7176 192.262C76.8394 192.223 77.0259 192.118 77.2761 191.944V193.513C77.0259 193.34 76.8382 193.234 76.7128 193.195C76.5875 193.157 76.4353 193.138 76.2556 193.138H74.8703V195.428H76.4002C76.5666 195.428 76.7047 195.417 76.8142 195.394C76.9233 195.372 77.0627 195.314 77.2325 195.222C77.4027 195.128 77.6285 194.976 77.9108 194.764L77.7573 196.246L73.186 196.247Z" fill="#FFF7E9"/>
<path d="M89.4736 195.78C89.5403 195.662 89.5809 195.575 89.5933 195.52C89.6061 195.466 89.6125 195.387 89.6125 195.285V191.04H88.2939L90.6998 189.463H90.9598V195.294C90.9598 195.397 90.9658 195.476 90.979 195.53C90.9919 195.585 91.0321 195.672 91.0992 195.79C91.1668 195.909 91.2613 196.061 91.3832 196.247H89.1891C89.311 196.054 89.406 195.899 89.4736 195.78Z" fill="#FFF7E9"/>
<path d="M100.155 189.756C100.568 190.016 100.886 190.385 101.108 190.863C101.329 191.341 101.44 191.901 101.44 192.542C101.44 193.28 101.297 193.942 101.011 194.529C100.726 195.117 100.328 195.573 99.8177 195.901C99.3083 196.228 98.7224 196.392 98.062 196.392C97.5873 196.392 97.1827 196.3 96.8495 196.117C96.5163 195.934 96.2879 195.685 96.166 195.371C96.4864 195.506 96.8747 195.573 97.3307 195.573C98.0941 195.573 98.7142 195.333 99.1928 194.851C99.6706 194.37 99.9417 193.703 100.006 192.85C99.6723 193.427 99.1236 193.715 98.3601 193.715C97.9427 193.715 97.5706 193.626 97.2442 193.446C96.9166 193.267 96.6651 193.02 96.4881 192.705C96.3123 192.391 96.2242 192.044 96.2242 191.666C96.2242 191.217 96.3298 190.818 96.5411 190.467C96.7528 190.118 97.0471 189.847 97.4222 189.655C97.7977 189.462 98.2194 189.366 98.6877 189.366C99.2519 189.366 99.7412 189.496 100.155 189.756ZM98.0038 192.422C98.2348 192.682 98.5466 192.812 98.9379 192.812C99.1881 192.812 99.4046 192.751 99.5872 192.629C99.7707 192.507 99.9097 192.337 100.006 192.119C99.9738 191.477 99.8472 190.988 99.6253 190.651C99.4041 190.314 99.1039 190.146 98.7254 190.146C98.411 190.146 98.1548 190.26 97.9559 190.488C97.7571 190.715 97.6574 191.021 97.6574 191.406C97.6574 191.824 97.7729 192.162 98.0038 192.422Z" fill="#FFF7E9"/>
<path d="M109.485 190.647H105.818L106.193 189.511H110.88L107.82 196.247H106.444L109.485 190.647Z" fill="#FFF7E9"/>
<path d="M116.399 196.155C115.998 195.999 115.69 195.779 115.475 195.496C115.26 195.214 115.153 194.89 115.153 194.525C115.153 194.146 115.275 193.822 115.518 193.553C115.762 193.283 116.097 193.095 116.52 192.985C116.167 192.806 115.89 192.569 115.692 192.278C115.493 191.986 115.393 191.657 115.393 191.291C115.393 190.932 115.493 190.606 115.692 190.315C115.89 190.023 116.17 189.792 116.529 189.622C116.888 189.452 117.292 189.366 117.742 189.366C118.21 189.366 118.629 189.437 118.998 189.578C119.366 189.719 119.655 189.919 119.863 190.175C120.072 190.432 120.176 190.727 120.176 191.06C120.176 191.413 120.066 191.713 119.844 191.96C119.623 192.207 119.326 192.385 118.954 192.494C119.454 192.686 119.82 192.929 120.051 193.22C120.282 193.512 120.398 193.883 120.398 194.332C120.398 194.723 120.288 195.076 120.07 195.391C119.852 195.705 119.546 195.951 119.151 196.127C118.757 196.303 118.306 196.392 117.799 196.392C117.267 196.391 116.8 196.313 116.399 196.155ZM116.895 195.338C117.138 195.559 117.462 195.669 117.866 195.669C118.225 195.669 118.519 195.575 118.747 195.385C118.974 195.197 119.089 194.951 119.089 194.649C119.089 194.386 119.008 194.17 118.848 193.999C118.688 193.829 118.431 193.684 118.078 193.562L117.193 193.244C116.751 193.482 116.529 193.886 116.529 194.457C116.529 194.823 116.651 195.116 116.895 195.338ZM116.909 191.57C117.079 191.756 117.334 191.907 117.674 192.022L118.223 192.225C118.646 191.994 118.858 191.615 118.858 191.09C118.858 190.781 118.752 190.53 118.54 190.334C118.328 190.138 118.052 190.04 117.712 190.04C117.399 190.04 117.143 190.122 116.948 190.286C116.752 190.449 116.653 190.662 116.653 190.925C116.654 191.17 116.739 191.384 116.909 191.57Z" fill="#FFF7E9"/>
</svg>
